<svg height="26.45805mm" viewBox="0 0 28.778608 26.45805" width="28.778608mm" xmlns="http://www.w3.org/2000/svg">
    <path
        d="m65.038111 170.27127c-2.938565 0-6.37626-1.31527-7.833177-1.93356v-.76443-2.97005c1.522119.36423 5.177901 1.17138 7.833177 1.17138 2.655277 0 6.311059-.80715 7.833178-1.17138v2.97005.76443c-1.456917.62054-4.89686 1.93356-7.833178 1.93356m14.342089-3.37024c-.0023-.009-.0045-.018-.009-.027-.02923-.0607-.0697-.11242-.119161-.15514-.009-.007-.01799-.0157-.02698-.0225-.05171-.0405-.114665-.072-.184363-.0944-.01124-.005-.02473-.007-.03597-.0112-.0742-.0202-.155135-.0382-.245068-.045-.009 0-.01799 0-.02698 0-.04272-.002-.08544-.007-.132651-.007-.04047 0-.08319.004-.125907.007-.02698.002-.05171.002-.07869.005-.103422.007-.211342.0202-.323759.0382-.01799.002-.03597.007-.05621.0112-.09668.0157-.195604.036-.29678.0585-.03372.009-.06745.0157-.103422.0247-.09893.0247-.200102.0495-.301277.0787-.02023.004-.04047.009-.0607.0157-.119161.0337-.240571.0697-.357485.10792-.03148.009-.06295.0202-.09443.0315-.09218.0292-.182114.0607-.272048.0922-.02923.0112-.0607.0225-.09218.0315-.110168.0382-.218088.0787-.321511.11916-.009.005-.01799.007-.02923.0112-.09443.036-.184363.0719-.2698.10568-.02473.0112-.04946.0202-.07644.0315-.07195.0292-.137148.0562-.200101.0832-.01574.007-.03148.0135-.04722.0202-.07195.0292-.1349.0584-.18886.0809-.01574.007-.02698.0113-.03822.018-.03597.0157-.07195.0315-.09443.0427-.009.005-.02023.009-.02698.0112-.01799.007-.03597.0157-.03597.0157v-3.59732l2.630545-14.43877h-12.70081-12.71205l2.630545 14.43877v3.59732s-.01799-.009-.03822-.018c-.0067-.002-.01574-.007-.02248-.0113-.02473-.0112-.05846-.0247-.09668-.0427-.01349-.007-.02473-.0112-.04047-.018-.05396-.0225-.116913-.0517-.18886-.0809-.01574-.007-.03148-.0135-.04722-.0202-.0607-.0247-.125906-.0517-.195605-.0809-.02698-.0112-.05396-.0225-.08094-.0315-.08094-.0337-.166376-.0652-.25631-.10118-.01349-.004-.02698-.0112-.04047-.0157-.101174-.0382-.209094-.0787-.317014-.11691-.03148-.0112-.0652-.0225-.09668-.0337-.08544-.0292-.173121-.0585-.263054-.0899-.03373-.0112-.0652-.0225-.09893-.0337-.116913-.0382-.236074-.0742-.355236-.10792-.02248-.007-.04497-.0135-.06745-.018-.09893-.027-.195604-.0517-.294531-.0764-.03597-.009-.0697-.0157-.105671-.0247-.09893-.0225-.197853-.0427-.292283-.0585-.02023-.005-.04047-.009-.05846-.0112-.110169-.018-.218088-.0292-.321511-.0382-.02698-.002-.05171-.002-.07869-.005-.04272-.002-.08544-.007-.125906-.007-.04497 0-.08993.002-.132652.007-.009 0-.01799 0-.02698 0-.08993.007-.170873.0225-.245068.045-.01124.004-.02473.007-.03597.0112-.0697.0247-.132651.0562-.184363.0944-.009.007-.01799.0135-.02698.0225-.04946.0427-.09218.0944-.119161.15514-.0045.009-.0067.018-.009.027-.02698.0675-.04497.14164-.04497.23158 0 .84537.537351 1.82339 1.434434 2.81265.784666.86561 1.843629 1.74246 3.057727 2.54961.694733.46091 1.43893.89933 2.212355 1.29953.386712.2001.78017.39121 1.178125.57108.200101.0899.400202.17762.600303.26081.402451.16862.80715.32375 1.211849.4654.20235.072.404699.13715.607049.20235.404699.12815.80715.23832 1.207353.335.998258.23832 1.971784.37322 2.87786.37322.544096 0 1.110674-.0472 1.69524-.13715 1.360239-.21134 2.803666-.64976 4.21112-1.23658.402451-.16862.800405-.34849 1.193862-.5396 1.57383-.76218 3.053231-1.68849 4.26508-2.66202.454162-.36423.870103-.7352 1.238829-1.10842.613794-.62054 1.097185-1.24108 1.405206-1.83239.0607-.11916.116912-.23607.164128-.35074.141644-.34849.218088-.68349.218088-1.00051-.0023-.0922-.02024-.16637-.04722-.23382"
        fill="#3b3b59" stroke-width=".022483" transform="translate(-50.648792 -149.54426)" />
</svg>