<svg height="26.458332mm" viewBox="0 0 25.854296 26.458332" width="25.854296mm" xmlns="http://www.w3.org/2000/svg">
    <path
        d="m105.30828 77.167148-6.189838 2.38583 3.292898 3.76765-6.660542-1.27474.949485 4.0242 3.818147.86666-.884842 3.49492 4.648442-2.78785 4.77369 2.41007-.0647-1.33938-.0889-1.84644 2.64442-2.5616.25252-3.42218-6.28681 2.87876zm-12.335234 8.78577-2.232302 7.04034 3.353503 7.931242 9.573643 2.70098 9.97769-2.70098 2.94946-7.931242-2.2323-7.04034-1.44645-.72322-.24646.2404-2.11917 2.05453.11717 2.45654.13333 2.76967-2.47473-1.25049-3.97774-2.00807-3.88481 2.32725-3.35956 2.01413.961607-3.79795.478783-1.88887-2.201999-.49898-.983829-.22424-.230301-.98181-.33131-1.40201zm19.579614 7.22014-.33737-3.36563.74544-.63838 1.27474 3.80199-2.43634 5.92519-7.45044 2.020192z"
        fill="#dd5959" stroke-width=".020202" transform="translate(-90.740744 -77.167148)" />
</svg>