<svg height="26.45833mm" viewBox="0 0 26.458332 26.45833" width="26.458332mm" xmlns="http://www.w3.org/2000/svg">
    <path
        d="m67.76695 166.78894c-.667764-1.0585-2.054977-1.16807-.800077-2.8013.266693-.34525.256356-.87243.165391-1.58568-2.776492.24395-3.258191-1.61669-3.076262-4.27121-.0062.0103-1.219754.18814-1.765543.7608-2.001223-2.68966 2.183154-6.10911 4.093413-1.89785.605742-.10337 4.039662.48169 2.993567 4.31669-.248086.90964.754594 1.86064.754594 1.86064 6.185601.42794-.2915 6.90298-2.365083 3.61791zm-5.662555 3.0928c.446554-.83729 1.134992-1.49678 1.701454-2.11906.258422-.2853-.512711-1.82136-.417611-1.97642 0 0-1.58568.46516-1.715925.0538 0 0-.297703-.69878-.382465-.97374-.05995-.15505-.531317-.83316-.53752-1.08744-.0062-.25429.928254-.14472.78974-1.08124-.136447-.91792-.74219-3.41738 1.660106-3.95077-.254288.3742-.233614 4.90796 2.805435 4.18438.117841.64916.26876 1.53606-.872434 1.80069.107503.36386.456891 1.06884.781469 1.68285.322512.61401.860031.89104.860031.89104zm3.311943-16.52663c-4.788052 0-8.682997 3.89494-8.682997 8.68299 0 4.78806 3.894945 8.683 8.682997 8.683 4.788053 0 8.682997-3.89494 8.682997-8.683-.0021-4.78805-3.897012-8.68299-8.682997-8.68299zm0 19.01783c-5.708037 0-10.336901-4.6268-10.336901-10.3369 0-.71325.07236-1.40996.210873-2.08392.06822-.33699.155053-.6657.254288-.99028.101301-.32251.217075-.64089.347319-.94893.196401-.46309.425881-.90964.684303-1.33552.258423-.42588.547856-.83316.864165-1.21562.105437-.12818.21294-.25222.324579-.37627.779402-.85589 1.699387-1.58154 2.724807-2.13974.293569-.15918.593339-.3039.903446-.43621.155053-.0641.310107-.12611.469295-.184 1.108115-.40521 2.305129-.62642 3.553826-.62642 1.248698 0 2.445711.22121 3.553827.62642.159188.0579.314242.11991.469295.184.310108.13024.611945.27703.903446.43621 1.02542.55613 1.945404 1.28178 2.72274 2.13974.111638.12198.219142.24809.324578.37627.316309.38246.603675.78974.864165 1.21562.258423.42588.487902.87243.684303 1.33552.130245.31011.246019.62642.34732.94893.101301.32458.186065.65536.254288.99028.138514.67396.208805 1.37067.208805 2.08392.0021 5.7101-4.62473 10.3369-10.332767 10.3369zm0-23.56607c-7.306122 0-13.229166 5.92304-13.229166 13.22917 0 7.30612 5.923044 13.22916 13.229166 13.22916s13.229167-5.92304 13.229167-13.22916c0-7.30613-5.923045-13.22917-13.229167-13.22917z"
        fill="#cb5650" stroke-width=".020674" transform="translate(-52.187172 -148.80687)" />
</svg>