<svg height="26.45833mm" viewBox="0 0 31.002489 26.45833" width="31.002489mm" xmlns="http://www.w3.org/2000/svg">
    <path
        d="m47.005188 141.38909-2.390769 4.13964 12.886417 22.31869h5.229657l12.886416-22.31869-2.390769-4.13964zm.678233 4.13964.855057-1.48242h23.154373l.855057 1.48242-11.350705 19.66147h-2.163077zm15.596925.28825v3.55103h5.004386l2.051654-3.55103zm-13.385402 0 2.056497 3.56314v-.0121h5.125499v-3.55103zm8.95509 8.86789h2.657219v-8.8582h-2.657219zm4.430312-3.54377v3.54377h1.937806l2.044388-3.54377zm-10.311556 0 2.044386 3.54377h2.063764v-3.54377zm10.311556 5.31444h-6.200983-1.041571l4.018527 6.96399h.116268l4.02095-6.96399z"
        fill="#b89b65" stroke-width=".024223" transform="translate(-44.614419 -141.38909)" />
</svg>