<svg height="26.458309mm" viewBox="0 0 26.460293 26.458309" width="26.460293mm" xmlns="http://www.w3.org/2000/svg">
    <path
        d="m44.328572 132.42784c-.04962.38453-.531316.53132-.787671.23568l-1.676646-1.93713c-.29977-.34526.04755-.86417.4817-.72152l1.850305.60781c.204671.0682.332848.27083.305972.48584zm-1.558804 3.43392-.810413 1.48438c-.183997.33698-.676033.3039-.814548-.0517l-1.598085-4.11201c-.179862-.46517.415543-.83523.750459-.46723l2.408498 2.62764c.130245.14265.155053.34938.06409.51891zm-4.047931 4.31669-2.578023 1.14533c-.29977.13231-.634686-.0868-.632619-.41554l.05168-6.33239c.0041-.4755.64709-.62021.853828-.19227l2.526339 5.18706c.111638.22948.01034.50444-.22121.60781zm7.372278-10.18185c-.03101-.38867-.07649-.75046-.136447-1.07297-.02894-.16125-.06202-.31424-.09923-.45689-.07236-.2853-.155054-.53132-.243951-.72772-.04548-.0992-.09097-.18606-.138514-.25842-.0951-.14678-.196402-.24395-.297703-.2791-.26049-.0951-.510643-.19226-.754594-.2915-.132312-.0537-.26049-.11164-.388667-.16745-.0951-.0414-.192267-.0827-.285299-.12611-.171592-.0786-.334915-.15713-.496171-.23775-.03514-.0186-.07236-.0351-.107504-.0538-.186065-.0951-.365926-.19019-.541654-.28736-4.515158-2.50567-5.528174-5.98507-7.149-7.78989-.08063-.0889-.161257-.17366-.243952-.25429l-.01034-.0103c-.08063-.0765-.161255-.14886-.246018-.21708-.0062-.006-.01447-.0124-.02274-.0186-.07856-.0641-.161255-.12197-.246018-.17779-.0124-.008-.02481-.0186-.03721-.0248-.08063-.0517-.163323-.0972-.248085-.14265-.01861-.008-.03515-.0207-.05375-.0289-.08063-.0393-.165391-.0744-.252221-.10751-.02481-.008-.04755-.0207-.07029-.0289-.08476-.0289-.171592-.0517-.26049-.0744-.02894-.008-.05789-.0165-.08683-.0248-.09097-.0207-.186064-.0331-.283231-.0455-.03101-.004-.05995-.0124-.09097-.0145-.128178-.0145-.264625-.0207-.403139-.0207-.140582 0-.274961.006-.403139.0207-.03101.002-.05995.0103-.09303.0145-.0951.0124-.192266.0269-.281164.0455-.03101.006-.05789.0165-.08683.0248-.0889.0227-.175727.0455-.258422.0744-.02481.008-.04755.0207-.07236.0289-.08476.0331-.171592.0662-.25222.10751-.01861.008-.03515.0207-.05375.0289-.08476.0434-.167458.091-.248086.14058-.0124.008-.02481.0186-.03721.0269-.08476.0558-.16539.11371-.246018.17779-.0083.006-.01447.0124-.02274.0186-.08476.0682-.165391.14058-.243951.21708l-.01034.0103c-.08269.0806-.16539.16539-.243951.25429-1.618759 1.80482-2.631775 5.28422-7.149001 7.78989-.175727.0972-.35559.19227-.541654.28736-.03514.0186-.07236.0351-.107503.0538-.163323.0806-.326647.16125-.498239.23775-.09303.0434-.190199.0848-.285298.12611-.128178.0558-.254288.1137-.388668.16745-.243951.0992-.494104.19847-.754594.2915-.303905.10958-.59954.75253-.779402 1.7242-.05995.32458-.107504.6843-.136447 1.07297-.02894.38867-.04341.80628-.03515 1.24663.0083.44035.03721.90138.09096 1.37688.107504.94892.316309 1.95574.655359 2.95635.339051 1.00061.812481 1.99709 1.449234 2.92948 1.91026 2.7951 5.298696 5.00719 11.033609 5.00719s9.123349-2.21209 11.031541-5.00719c.636754-.93239 1.108116-1.92887 1.449234-2.92948.33905-1.00061.547856-2.00743.655359-2.95635.08063-.71118.105437-1.39135.08683-2.0157-.0041-.21087-.01447-.41348-.02894-.60988zm-18.585749-10.77932c.202603-.32044.411409-.64916.630551-.97373h-4.938972v5.73491c2.2183-1.45751 3.314011-3.18377 4.308421-4.76118zm15.093944 4.76118v-5.73491h-4.938972c.219143.32457.425881.65122.628484.97373.996477 1.57741 2.092189 3.30367 4.310488 4.76118z"
        fill="#34a98a" stroke-width=".020674" transform="translate(-19.668627 -117.05692)" />
</svg>