<svg height="26.458309mm" viewBox="0 0 22.915119 26.458309" width="22.915119mm" xmlns="http://www.w3.org/2000/svg">
    <path
        d="m61.358831 163.1832-1.132836.75453v.95092h-1.511136l-.756603 1.13491.756603 1.1349h1.289944l-5.982531 3.45226.644972-1.1163-.603627-1.22173-1.360231.0868-.756602 1.30855-.822753-.47546-1.221726.60363.08682 1.36023.822753.47546-.754535 1.31062.603628 1.22173 1.36023-.0868.644972-1.1163v6.90658l-.644972-1.1163-1.36023-.0889-.603628 1.22173.756602 1.30855-.822753.47546-.08682 1.36023 1.221726.60363.822753-.47546.756602 1.30855 1.36023.0868.603629-1.22173-.644973-1.11629 5.980464 3.45225h-1.289944l-.756603 1.1349.754535 1.13284h1.513204v.95092l1.134903.7566 1.134904-.7566v-.95092h1.511136l.756602-1.1349-.756602-1.13284h-1.289944l5.980464-3.45225-.644972 1.11629.603627 1.22173 1.36023-.0868.756602-1.30855.822753.47546 1.221727-.60363-.08889-1.36023-.822753-.47546.756602-1.30855-.603628-1.22173-1.36023.0889-.644972 1.1163v-6.90658l.644972 1.1163 1.36023.0868.603628-1.22173-.756602-1.30855.822753-.47546.08682-1.36023-1.221727-.60363-.822753.47546-.756602-1.30855-1.36023-.0868-.603628 1.22172.644972 1.1163-5.980464-3.45639h1.289945l.756602-1.1349-.756602-1.1349h-1.511137v-.95092zm1.134903 7.77481v-1.7468l4.535478 2.61917-1.511137.87236zm-6.803217.87237 4.535478-2.61917v1.7468l-3.024341 1.7468zm2.267739 6.54688v-3.92772l3.400575-1.96386 3.402642 1.96386v3.92772l-3.400575 1.96386zm-3.402642-4.58303 1.511137.87237v3.49153l-1.511137.87237zm12.095297 4.3639v-3.49153l1.511137-.87237v5.23834zm-4.157177 3.71066 3.024341-1.7468 1.511137.87237-4.535478 2.61916zm-6.803217-.87443 1.511137-.87237 3.024341 1.7468v1.74473zm3.778876-5.67245v2.18298l1.889438 1.09149 1.889438-1.09149v-2.18298l-1.889438-1.09149z"
        fill="#b9b0b0" stroke-width=".020672" transform="translate(-49.902305 -163.1832)" />
</svg>