<?xml version="1.0" encoding="UTF-8" standalone="no"?>
<!-- Created with Inkscape (http://www.inkscape.org/) -->

<svg
   xmlns:dc="http://purl.org/dc/elements/1.1/"
   xmlns:cc="http://creativecommons.org/ns#"
   xmlns:rdf="http://www.w3.org/1999/02/22-rdf-syntax-ns#"
   xmlns:svg="http://www.w3.org/2000/svg"
   xmlns="http://www.w3.org/2000/svg"
   xmlns:sodipodi="http://sodipodi.sourceforge.net/DTD/sodipodi-0.dtd"
   xmlns:inkscape="http://www.inkscape.org/namespaces/inkscape"
   width="22.913055mm"
   height="26.45834mm"
   viewBox="0 0 22.913055 26.45834"
   version="1.1"
   id="svg8"
   sodipodi:docname="SMO Art - Regional Coin (Wooded).svg"
   inkscape:version="0.92.2 (5c3e80d, 2017-08-06)">
  <defs
     id="defs2" />
  <sodipodi:namedview
     id="base"
     pagecolor="#ffffff"
     bordercolor="#666666"
     borderopacity="1.0"
     inkscape:pageopacity="0.0"
     inkscape:pageshadow="2"
     inkscape:zoom="0.35"
     inkscape:cx="302.68573"
     inkscape:cy="-268.71525"
     inkscape:document-units="mm"
     inkscape:current-layer="layer1"
     showgrid="false"
     inkscape:window-width="1366"
     inkscape:window-height="705"
     inkscape:window-x="-8"
     inkscape:window-y="-8"
     inkscape:window-maximized="1"
     fit-margin-top="0"
     fit-margin-left="0"
     fit-margin-right="0"
     fit-margin-bottom="0" />
  <metadata
     id="metadata5">
    <rdf:RDF>
      <cc:Work
         rdf:about="">
        <dc:format>image/svg+xml</dc:format>
        <dc:type
           rdf:resource="http://purl.org/dc/dcmitype/StillImage" />
        <dc:title></dc:title>
      </cc:Work>
    </rdf:RDF>
  </metadata>
  <g
     inkscape:label="Layer 1"
     inkscape:groupmode="layer"
     id="layer1"
     transform="translate(-12.873867,-150.80642)">
    <path
       id="path10"
       d="m 24.330394,168.37985 c -2.400041,0 -4.345293,-1.94525 -4.345293,-4.34529 0,-2.40004 1.945252,-4.34529 4.345293,-4.34529 2.400042,0 4.345295,1.94525 4.345295,4.34529 0,2.40004 -1.945253,4.34529 -4.345295,4.34529 z m 0,-11.06169 c -3.702388,0 -6.716394,3.01194 -6.716394,6.7164 0,3.70239 3.011939,6.71639 6.716394,6.71639 3.704457,0 6.716395,-3.01193 6.716395,-6.71639 -0.0021,-3.70239 -3.014005,-6.7164 -6.716395,-6.7164 z m 8.29575,6.7164 c 0,0.28734 -0.01447,0.56849 -0.04341,0.84756 -0.08476,0.83722 -0.293545,1.63724 -0.609829,2.38144 -0.20879,0.49613 -0.467192,0.96745 -0.764871,1.40984 -0.446519,0.66151 -0.988131,1.25687 -1.602095,1.76334 -1.43465,1.18451 -3.272407,1.89564 -5.27761,1.89564 -2.005203,0 -3.842959,-0.71113 -5.277609,-1.89564 -0.613966,-0.50647 -1.155577,-1.10183 -1.602096,-1.76334 -0.297679,-0.44032 -0.554014,-0.91164 -0.764871,-1.40984 -0.314217,-0.7442 -0.523006,-1.54422 -0.609829,-2.38144 -0.02894,-0.27907 -0.04341,-0.56228 -0.04341,-0.84756 0,-0.28734 0.01447,-0.56849 0.04341,-0.84756 0.08476,-0.83722 0.295612,-1.63724 0.609829,-2.38144 0.210857,-0.49613 0.467192,-0.96745 0.764871,-1.40984 0.448587,-0.66151 0.98813,-1.25687 1.602096,-1.76334 1.43465,-1.18452 3.272406,-1.89358 5.277609,-1.89358 2.005203,0 3.84296,0.71112 5.27761,1.89358 0.613964,0.50647 1.155576,1.10183 1.602095,1.76334 0.297679,0.44032 0.556081,0.91164 0.764871,1.40984 0.314217,0.7442 0.523005,1.54422 0.609829,2.38144 0.02894,0.27907 0.04341,0.56228 0.04341,0.84756 z m -8.29575,-13.22814 -11.456527,6.61511 v 13.22813 l 11.456527,6.6151 11.456529,-6.6151 v -13.22813 z"
       inkscape:connector-curvature="0"
       style="fill:#449a2a;stroke-width:0.02067219" />
  </g>
</svg>
