<?xml version="1.0" encoding="UTF-8" standalone="no"?>
<!-- Created with Inkscape (http://www.inkscape.org/) -->

<svg
   xmlns:dc="http://purl.org/dc/elements/1.1/"
   xmlns:cc="http://creativecommons.org/ns#"
   xmlns:rdf="http://www.w3.org/1999/02/22-rdf-syntax-ns#"
   xmlns:svg="http://www.w3.org/2000/svg"
   xmlns="http://www.w3.org/2000/svg"
   xmlns:sodipodi="http://sodipodi.sourceforge.net/DTD/sodipodi-0.dtd"
   xmlns:inkscape="http://www.inkscape.org/namespaces/inkscape"
   width="69.531921"
   height="94"
   viewBox="0 0 69.531921 94"
   id="svg4947"
   version="1.1"
   inkscape:version="0.91 r13725"
   sodipodi:docname="SMO Art - Regional Coin (Bowser's).svg">
  <defs
     id="defs4949" />
  <sodipodi:namedview
     id="base"
     pagecolor="#c8c8c8"
     bordercolor="#000000"
     borderopacity="1"
     inkscape:pageopacity="0"
     inkscape:pageshadow="2"
     inkscape:zoom="5.6"
     inkscape:cx="28.96284"
     inkscape:cy="22.317666"
     inkscape:document-units="px"
     inkscape:current-layer="layer1"
     showgrid="false"
     units="px"
     borderlayer="true"
     fit-margin-top="0"
     fit-margin-left="0"
     fit-margin-right="0"
     fit-margin-bottom="0"
     inkscape:window-width="1920"
     inkscape:window-height="1057"
     inkscape:window-x="-8"
     inkscape:window-y="-8"
     inkscape:window-maximized="1" />
  <metadata
     id="metadata4952">
    <rdf:RDF>
      <cc:Work
         rdf:about="">
        <dc:format>image/svg+xml</dc:format>
        <dc:type
           rdf:resource="http://purl.org/dc/dcmitype/StillImage" />
        <dc:title></dc:title>
      </cc:Work>
    </rdf:RDF>
  </metadata>
  <g
     inkscape:label="Layer 1"
     inkscape:groupmode="layer"
     id="layer1"
     transform="translate(-430,-591.89732)">
    <path
       style="opacity:1;fill:#7a4646;fill-opacity:1;fill-rule:nonzero;stroke:none;stroke-width:4;stroke-linecap:butt;stroke-linejoin:miter;stroke-miterlimit:4;stroke-dasharray:none;stroke-opacity:1"
       d="M 464.7662,591.89732 A 34.765994,34.765994 0 0 0 430,626.66304 l 0,24.46808 a 34.765994,34.765994 0 0 0 34.7662,34.7662 34.765994,34.765994 0 0 0 34.76572,-34.7662 l 0,-24.46808 A 34.765994,34.765994 0 0 0 464.7662,591.89732 Z m -4.8e-4,19.98976 a 27.010478,27.010478 0 0 1 27.01048,27.01048 27.010478,27.010478 0 0 1 -27.01048,27.01048 27.010478,27.010478 0 0 1 -27.01,-27.01048 27.010478,27.010478 0 0 1 27.01,-27.01048 z m 4.8e-4,5.46217 c -1.19065,0.69447 -2.12626,1.63172 -2.48994,3.11181 -0.56871,-0.86472 -1.12771,-1.86755 -1.49309,-2.69161 -2.55151,0.76883 -5.00114,4.72605 -5.72642,8.40215 -3.31192,-0.45924 -3.01797,-3.49955 -2.93565,-5.71776 -6.08399,2.26902 -3.3334,9.11619 -0.67387,10.5874 l 0,1.92919 c -4.26479,-0.17745 -5.21387,2.6126 -5.16566,6.03736 0.0433,3.07649 0.0348,6.84207 5.10357,9.02403 0.35844,2.48353 1.82096,4.15958 3.73418,5.97478 -1.78992,1.45545 -0.92763,3.84734 1.18216,5.47661 1.38386,1.06868 6.6806,1.41233 7.9598,0.17136 0.12606,-0.12229 0.3472,-0.17136 0.50492,-0.17136 0.15772,0 0.3779,0.0491 0.50396,0.17136 1.2792,1.24097 6.57594,0.89732 7.9598,-0.17136 2.10979,-1.62927 2.97208,-4.02116 1.18215,-5.47661 1.91323,-1.8152 3.37574,-3.49125 3.73418,-5.97478 5.06878,-2.18196 5.06027,-5.94754 5.10358,-9.02403 0.0482,-3.42476 -0.90038,-6.21481 -5.16519,-6.03736 l 0,-1.92919 c 2.65954,-1.47122 5.40966,-8.31838 -0.67434,-10.5874 0.0823,2.21821 0.37627,5.25852 -2.93565,5.71776 -0.72528,-3.6761 -3.17395,-7.63332 -5.72546,-8.40215 -0.36538,0.82406 -0.92534,1.82689 -1.49406,2.69161 -0.36368,-1.48009 -1.29831,-2.41734 -2.48897,-3.11181 z m -7.46885,9.9891 c 0.76426,2.15603 2.58985,3.46369 5.01068,4.29445 l 0,1.77372 c -1.67576,0.17958 -3.33279,0.34479 -5.40585,0.11696 -0.42942,-0.0472 -0.80225,-0.50032 -0.81826,-0.83271 -0.0908,-1.88521 -0.47142,-3.8073 1.21343,-5.35242 z m 14.93673,0 c 1.68486,1.54512 1.30429,3.46721 1.21344,5.35242 -0.016,0.33239 -0.38884,0.78551 -0.81826,0.83271 -2.07306,0.22784 -3.72912,0.0626 -5.40489,-0.11696 l 0,-1.77372 c 2.42083,-0.83076 4.24546,-2.13842 5.00971,-4.29445 z m -18.42206,10.11329 c 1.00167,1.228 1.59394,2.6006 3.92142,3.36066 -0.0174,2.33917 -0.40776,4.85706 3.42276,5.35243 l 0,-4.41864 3.61,-1.49358 3.60904,1.49358 0,4.41864 c 3.83053,-0.49537 3.44112,-3.01326 3.42372,-5.35243 2.32748,-0.76006 2.91879,-2.13266 3.92045,-3.36066 2.54379,1.33949 2.33161,3.62627 2.3027,5.85012 -4.29584,3.29847 -4.84006,6.70751 -6.53506,10.08248 -0.23241,-1.73427 -1.43389,-2.7417 -2.98715,-3.48533 l 0,4.41864 c -0.86908,-0.44714 -2.10256,-0.80913 -3.7337,-0.80912 -1.63114,0 -2.86558,0.36198 -3.73466,0.80912 l 0,-4.41864 c -1.55326,0.74363 -2.75475,1.75106 -2.98715,3.48533 -1.695,-3.37497 -2.23923,-6.78401 -6.53506,-10.08248 -0.0289,-2.22385 -0.24109,-4.51063 2.30269,-5.85012 z"
       id="circle4714"
       inkscape:connector-curvature="0" />
  </g>
</svg>
