<?xml version="1.0" encoding="UTF-8" standalone="no"?>
<!-- Created with Inkscape (http://www.inkscape.org/) -->

<svg
   xmlns:dc="http://purl.org/dc/elements/1.1/"
   xmlns:cc="http://creativecommons.org/ns#"
   xmlns:rdf="http://www.w3.org/1999/02/22-rdf-syntax-ns#"
   xmlns:svg="http://www.w3.org/2000/svg"
   xmlns="http://www.w3.org/2000/svg"
   xmlns:sodipodi="http://sodipodi.sourceforge.net/DTD/sodipodi-0.dtd"
   xmlns:inkscape="http://www.inkscape.org/namespaces/inkscape"
   width="88.943642"
   height="94"
   viewBox="0 0 88.943641 94"
   id="svg4947"
   version="1.1"
   inkscape:version="0.91 r13725"
   sodipodi:docname="SMO Art - Regional Coin (Lake).svg">
  <defs
     id="defs4949" />
  <sodipodi:namedview
     id="base"
     pagecolor="#c8c8c8"
     bordercolor="#000000"
     borderopacity="1"
     inkscape:pageopacity="0"
     inkscape:pageshadow="2"
     inkscape:zoom="5.6"
     inkscape:cx="11.45611"
     inkscape:cy="48.085242"
     inkscape:document-units="px"
     inkscape:current-layer="layer1"
     showgrid="false"
     units="px"
     borderlayer="true"
     fit-margin-top="0"
     fit-margin-left="0"
     fit-margin-right="0"
     fit-margin-bottom="0"
     inkscape:window-width="1920"
     inkscape:window-height="1057"
     inkscape:window-x="-8"
     inkscape:window-y="-8"
     inkscape:window-maximized="1" />
  <metadata
     id="metadata4952">
    <rdf:RDF>
      <cc:Work
         rdf:about="">
        <dc:format>image/svg+xml</dc:format>
        <dc:type
           rdf:resource="http://purl.org/dc/dcmitype/StillImage" />
        <dc:title></dc:title>
      </cc:Work>
    </rdf:RDF>
  </metadata>
  <g
     inkscape:label="Layer 1"
     inkscape:groupmode="layer"
     id="layer1"
     transform="translate(-199.21154,-786.93443)">
    <path
       style="opacity:1;fill:#5189c1;fill-opacity:1;fill-rule:nonzero;stroke:none;stroke-width:1px;stroke-linecap:butt;stroke-linejoin:miter;stroke-opacity:1"
       d="m 243.68337,786.93443 c -11.28869,7.4306 -30.59184,23.97867 -40.84557,45.51787 -10.25373,21.53919 0.58902,48.48213 40.84557,48.48213 40.25653,0 51.09929,-26.94294 40.84556,-48.48213 -10.25372,-21.5392 -29.55688,-38.08727 -40.84556,-45.51787 z m 0,15.38896 1.09572,0.69655 c 8.1407,5.17598 21.8023,16.43205 29.21825,31.47958 3.85046,7.81286 3.77539,16.84078 -1.19942,23.85291 -4.97481,7.01213 -14.6388,11.7476 -29.11455,11.7476 -14.47575,0 -24.13974,-4.73547 -29.11455,-11.7476 -4.97481,-7.01213 -5.04988,-16.04005 -1.19943,-23.85291 7.41596,-15.04753 21.07756,-26.3036 29.21825,-31.47958 l 1.09573,-0.69655 z m 0,4.88609 c -2.82512,1.87995 -6.27003,4.49429 -9.82451,7.70453 0.28431,2.57184 1.98054,4.95533 4.78526,6.36216 3.08402,1.54691 6.99448,1.54691 10.0785,0 2.80472,-1.40683 4.50095,-3.79032 4.78525,-6.36216 -3.55447,-3.21024 -6.99938,-5.82458 -9.8245,-7.70453 z m -13.20581,10.91863 c -3.04499,3.04614 -6.05098,6.4956 -8.70772,10.26707 0.75021,1.75326 2.20225,3.29364 4.24218,4.31685 3.08402,1.54691 6.99448,1.54691 10.0785,0 2.82871,-1.41886 4.52929,-3.83149 4.79164,-6.42852 -1.4044,-0.25731 -2.77707,-0.70859 -4.06924,-1.35674 -2.97747,-1.49346 -5.23417,-3.93039 -6.33536,-6.79866 z m 26.41162,0 c -1.10119,2.86827 -3.3579,5.3052 -6.33536,6.79866 -1.29227,0.64819 -2.66505,1.09944 -4.06956,1.35674 0.26234,2.59703 1.96292,5.00966 4.79164,6.42852 3.08402,1.54691 6.99448,1.54691 10.0785,0 2.04011,-1.0233 3.49234,-2.56372 4.2425,-4.31716 -2.65671,-3.7714 -5.66279,-7.22068 -8.70772,-10.26676 z m -13.20581,12.7007 c -1.22299,2.31595 -3.23265,4.26531 -5.76165,5.53383 -1.81268,0.90922 -3.78343,1.43201 -5.77856,1.57211 0.45357,3.38044 2.51859,6.41361 5.69145,8.1723 3.60975,2.00086 8.08777,2.00086 11.69751,0 3.17286,-1.75868 5.23789,-4.79186 5.69145,-8.1723 -1.99512,-0.1401 -3.96619,-0.66289 -5.77887,-1.57211 -2.529,-1.26852 -4.53834,-3.21788 -5.76133,-5.53383 z m 24.40715,1.38003 c -1.21905,1.7085 -2.89684,3.14657 -4.90492,4.1538 -1.13392,0.56876 -2.32997,0.98523 -3.55488,1.25303 0.36298,3.50806 2.45796,6.6775 5.73038,8.49138 2.21482,1.22767 4.75577,1.69776 7.22303,1.41864 0.33804,-3.67771 -0.4367,-7.54021 -2.25047,-11.22049 -0.68831,-1.39661 -1.44046,-2.7629 -2.24314,-4.09636 z m -48.81462,3.3e-4 c -0.8026,1.33334 -1.55458,2.69955 -2.24282,4.09604 -1.81377,3.68028 -2.58851,7.54278 -2.25048,11.22049 2.46727,0.27912 5.00821,-0.19097 7.22304,-1.41864 3.27242,-1.81388 5.36713,-4.98332 5.73006,-8.49138 -1.22485,-0.2678 -2.42101,-0.6843 -3.55488,-1.25303 -2.00805,-1.00722 -3.68585,-2.44504 -4.90492,-4.15348 z m 10.64423,11.63305 c -1.36999,2.39863 -3.40472,4.43466 -5.93459,5.83695 -2.5702,1.42465 -5.44738,2.09061 -8.30664,2.00607 0.52444,1.50555 1.26086,2.9507 2.22081,4.30376 0.41217,0.58098 0.86972,1.14694 1.36917,1.69656 0.37401,0.20602 0.76404,0.40154 1.17326,0.58327 4.34376,1.92905 9.87577,1.92905 14.21953,0 3.51713,-1.56193 5.7471,-4.06362 6.46873,-6.77408 -1.82821,-0.29085 -3.61608,-0.89567 -5.27569,-1.81558 -2.52987,-1.40229 -4.56459,-3.43832 -5.93458,-5.83695 z m 27.52616,3.3e-4 c -1.36999,2.39846 -3.40453,4.43441 -5.93427,5.83663 -1.65961,0.91991 -3.44747,1.52473 -5.27568,1.81557 0.72162,2.71047 2.9516,5.21215 6.46873,6.77409 4.34376,1.92904 9.87576,1.92904 14.21952,0 0.40923,-0.18173 0.79926,-0.37725 1.17326,-0.58328 0.49946,-0.54962 0.957,-1.11558 1.36918,-1.69655 0.95994,-1.35307 1.69636,-2.79822 2.2208,-4.30377 -2.85934,0.0846 -5.73667,-0.58137 -8.30695,-2.00606 -2.52979,-1.40225 -4.5646,-3.43811 -5.93459,-5.83663 z m -13.76292,11.92757 c -1.59667,2.62685 -4.17253,4.81399 -7.36407,6.23133 -2.33701,1.03786 -4.87252,1.63051 -7.43714,1.78303 3.97043,1.40448 8.86705,2.23133 14.80121,2.23133 5.93415,0 10.83077,-0.82685 14.80121,-2.23133 -2.56462,-0.15252 -5.10013,-0.74517 -7.43714,-1.78303 -3.19154,-1.41734 -5.7674,-3.60448 -7.36407,-6.23133 z"
       id="path4144"
       inkscape:connector-curvature="0" />
  </g>
</svg>
